<svg width="94" height="94" viewBox="0 0 94 94" fill="none" xmlns="http://www.w3.org/2000/svg">
<g clip-path="url(#clip0)" filter="url(#filter0_i)">
<path d="M94 47C94 21.0426 72.9574 0 47 0C21.0426 0 0 21.0426 0 47C0 72.9574 21.0426 94 47 94C72.9574 94 94 72.9574 94 47Z" fill="url(#paint0_linear)"/>
<g filter="url(#filter1_d)">
<path d="M43.4197 72.4661C60.348 74.7767 75.6329 65.2071 77.5596 51.0919C79.4862 36.9766 67.3249 23.6608 50.3967 21.3502C33.4684 19.0397 18.1835 28.6092 16.2569 42.7245C14.3302 56.8398 26.4915 70.1556 43.4197 72.4661Z" fill="white"/>
<path d="M43.4197 72.4661C60.348 74.7767 75.6329 65.2071 77.5596 51.0919C79.4862 36.9766 67.3249 23.6608 50.3967 21.3502C33.4684 19.0397 18.1835 28.6092 16.2569 42.7245C14.3302 56.8398 26.4915 70.1556 43.4197 72.4661Z" fill="url(#paint1_linear)"/>
</g>
<path d="M30.4991 46.9846C33.1112 47.3411 35.5177 45.5126 35.8742 42.9006C36.2308 40.2885 34.4023 37.882 31.7902 37.5254C29.1781 37.1689 26.7716 38.9974 26.4151 41.6095C26.0585 44.2215 27.887 46.6281 30.4991 46.9846Z" fill="black"/>
<path d="M62.6967 51.3795C65.3088 51.736 67.7153 49.9075 68.0718 47.2954C68.4283 44.6833 66.5999 42.2768 63.9878 41.9203C61.3757 41.5637 58.9692 43.3922 58.6127 46.0043C58.2561 48.6164 60.0846 51.0229 62.6967 51.3795Z" fill="black"/>
<path d="M59.2162 47.013L34.2949 43.6115C34.094 43.5841 33.9088 43.7247 33.8814 43.9256C33.854 44.1266 33.9946 44.3117 34.1956 44.3391L59.1169 47.7407C59.3178 47.7681 59.5029 47.6274 59.5303 47.4265C59.5578 47.2256 59.4171 47.0405 59.2162 47.013Z" fill="black"/>
</g>
<defs>
<filter id="filter0_i" x="-2" y="0" width="96" height="98" filterUnits="userSpaceOnUse" color-interpolation-filters="sRGB">
<feFlood flood-opacity="0" result="BackgroundImageFix"/>
<feBlend mode="normal" in="SourceGraphic" in2="BackgroundImageFix" result="shape"/>
<feColorMatrix in="SourceAlpha" type="matrix" values="0 0 0 0 0 0 0 0 0 0 0 0 0 0 0 0 0 0 127 0" result="hardAlpha"/>
<feOffset dx="-2" dy="4"/>
<feGaussianBlur stdDeviation="2"/>
<feComposite in2="hardAlpha" operator="arithmetic" k2="-1" k3="1"/>
<feColorMatrix type="matrix" values="0 0 0 0 0 0 0 0 0 0 0 0 0 0 0 0 0 0 0.25 0"/>
<feBlend mode="normal" in2="shape" result="effect1_innerShadow"/>
</filter>
<filter id="filter1_d" x="-3.94384" y="14.0061" width="91.7041" height="81.8041" filterUnits="userSpaceOnUse" color-interpolation-filters="sRGB">
<feFlood flood-opacity="0" result="BackgroundImageFix"/>
<feColorMatrix in="SourceAlpha" type="matrix" values="0 0 0 0 0 0 0 0 0 0 0 0 0 0 0 0 0 0 127 0"/>
<feOffset dx="-5" dy="8"/>
<feGaussianBlur stdDeviation="7.5"/>
<feColorMatrix type="matrix" values="0 0 0 0 0 0 0 0 0 0 0 0 0 0 0 0 0 0 0.5 0"/>
<feBlend mode="normal" in2="BackgroundImageFix" result="effect1_dropShadow"/>
<feBlend mode="normal" in="SourceGraphic" in2="effect1_dropShadow" result="shape"/>
</filter>
<linearGradient id="paint0_linear" x1="0" y1="94" x2="94" y2="0" gradientUnits="userSpaceOnUse">
<stop stop-color="#A40100"/>
<stop offset="1" stop-color="#BF0302"/>
</linearGradient>
<linearGradient id="paint1_linear" x1="19.0937" y1="58.1074" x2="54.6242" y2="18.4477" gradientUnits="userSpaceOnUse">
<stop stop-color="#A51313" stop-opacity="0.8"/>
<stop offset="0.686585" stop-color="white" stop-opacity="0"/>
</linearGradient>
<clipPath id="clip0">
<rect width="94" height="94" fill="white"/>
</clipPath>
</defs>
</svg>
